<svg width="150" height="150" viewBox="0 0 150 150" fill="none" xmlns="http://www.w3.org/2000/svg">
<ellipse cx="75.1757" cy="72.8624" rx="70.5494" ry="70.5494" fill="#4F46E5"/>
<mask id="path-2-inside-1_144_232" fill="white">
<path d="M114.931 54.0816C118.822 52.0429 120.369 47.1896 117.772 43.6462C113.873 38.3273 109.002 33.763 103.392 30.2074C95.5343 25.2265 86.5042 22.4004 77.2086 22.013C67.9129 21.6256 58.6789 23.6904 50.4336 28.0001C44.5478 31.0766 39.3136 35.2197 34.9855 40.1957C32.1022 43.5106 33.2401 48.4758 36.9487 50.8314V50.8314C40.6572 53.1869 45.5226 52.0107 48.6129 48.8879C51.2967 46.1758 54.394 43.8822 57.8036 42.1001C63.5753 39.0832 70.0391 37.6379 76.546 37.9091C83.0529 38.1803 89.374 40.1585 94.8747 43.6452C98.1242 45.7049 101.02 48.2482 103.469 51.1743C106.288 54.5434 111.039 56.1204 114.931 54.0816V54.0816Z"/>
</mask>
<path d="M114.931 54.0816C118.822 52.0429 120.369 47.1896 117.772 43.6462C113.873 38.3273 109.002 33.763 103.392 30.2074C95.5343 25.2265 86.5042 22.4004 77.2086 22.013C67.9129 21.6256 58.6789 23.6904 50.4336 28.0001C44.5478 31.0766 39.3136 35.2197 34.9855 40.1957C32.1022 43.5106 33.2401 48.4758 36.9487 50.8314V50.8314C40.6572 53.1869 45.5226 52.0107 48.6129 48.8879C51.2967 46.1758 54.394 43.8822 57.8036 42.1001C63.5753 39.0832 70.0391 37.6379 76.546 37.9091C83.0529 38.1803 89.374 40.1585 94.8747 43.6452C98.1242 45.7049 101.02 48.2482 103.469 51.1743C106.288 54.5434 111.039 56.1204 114.931 54.0816V54.0816Z" stroke="#BFCAEF" stroke-width="24.5946" mask="url(#path-2-inside-1_144_232)"/>
<mask id="path-3-inside-2_144_232" fill="white">
<path d="M34.2782 55.6671C30.3094 53.7829 25.501 55.4643 24.231 59.6701C22.8502 64.243 22.09 68.9932 21.9808 73.7931C21.8715 78.5929 22.4148 83.3728 23.586 88.0037C24.6633 92.263 29.3902 94.1615 33.4406 92.4599V92.4599C37.4911 90.7582 39.3012 86.0915 38.4998 81.7718C38.0352 79.2676 37.8283 76.7154 37.8866 74.1551C37.9448 71.5948 38.2677 69.0547 38.8458 66.5743C39.8429 62.2956 38.247 57.5513 34.2782 55.6671V55.6671Z"/>
</mask>
<path d="M34.2782 55.6671C30.3094 53.7829 25.501 55.4643 24.231 59.6701C22.8502 64.243 22.09 68.9932 21.9808 73.7931C21.8715 78.5929 22.4148 83.3728 23.586 88.0037C24.6633 92.263 29.3902 94.1615 33.4406 92.4599V92.4599C37.4911 90.7582 39.3012 86.0915 38.4998 81.7718C38.0352 79.2676 37.8283 76.7154 37.8866 74.1551C37.9448 71.5948 38.2677 69.0547 38.8458 66.5743C39.8429 62.2956 38.247 57.5513 34.2782 55.6671V55.6671Z" stroke="#BFCAEF" stroke-width="24.5946" mask="url(#path-3-inside-2_144_232)"/>
<mask id="path-4-inside-3_144_232" fill="white">
<path d="M100.308 37.6964C102.774 34.0607 107.771 33.0734 110.998 36.0556C114.827 39.5948 118.124 43.6894 120.772 48.2146C124.763 55.0359 127.18 62.6631 127.845 70.5385C128.51 78.4139 127.406 86.3383 124.615 93.7323C121.823 101.126 117.414 107.803 111.71 113.274C106.006 118.744 99.1518 122.871 91.6478 125.352C84.1439 127.833 76.1804 128.606 68.3395 127.613C60.4987 126.62 52.9788 123.888 46.3299 119.615C41.919 116.781 37.9654 113.316 34.5889 109.343C31.7438 105.995 32.9386 101.043 36.6739 98.7305V98.7305C40.4092 96.4177 45.2608 97.6496 48.315 100.808C50.2979 102.858 52.5166 104.679 54.9309 106.231C59.5852 109.222 64.8491 111.134 70.3377 111.829C75.8263 112.524 81.4008 111.983 86.6535 110.247C91.9062 108.51 96.7044 105.621 100.697 101.792C104.69 97.962 107.776 93.2884 109.73 88.1126C111.684 82.9368 112.457 77.3897 111.992 71.8769C111.526 66.3642 109.834 61.0251 107.04 56.2502C105.591 53.7732 103.863 51.4806 101.898 49.414C98.8696 46.2307 97.8411 41.3321 100.308 37.6964V37.6964Z"/>
</mask>
<path d="M100.308 37.6964C102.774 34.0607 107.771 33.0734 110.998 36.0556C114.827 39.5948 118.124 43.6894 120.772 48.2146C124.763 55.0359 127.18 62.6631 127.845 70.5385C128.51 78.4139 127.406 86.3383 124.615 93.7323C121.823 101.126 117.414 107.803 111.71 113.274C106.006 118.744 99.1518 122.871 91.6478 125.352C84.1439 127.833 76.1804 128.606 68.3395 127.613C60.4987 126.62 52.9788 123.888 46.3299 119.615C41.919 116.781 37.9654 113.316 34.5889 109.343C31.7438 105.995 32.9386 101.043 36.6739 98.7305V98.7305C40.4092 96.4177 45.2608 97.6496 48.315 100.808C50.2979 102.858 52.5166 104.679 54.9309 106.231C59.5852 109.222 64.8491 111.134 70.3377 111.829C75.8263 112.524 81.4008 111.983 86.6535 110.247C91.9062 108.51 96.7044 105.621 100.697 101.792C104.69 97.962 107.776 93.2884 109.73 88.1126C111.684 82.9368 112.457 77.3897 111.992 71.8769C111.526 66.3642 109.834 61.0251 107.04 56.2502C105.591 53.7732 103.863 51.4806 101.898 49.414C98.8696 46.2307 97.8411 41.3321 100.308 37.6964V37.6964Z" stroke="#EEF2FF" stroke-width="24.5946" mask="url(#path-4-inside-3_144_232)"/>
<rect x="53.1472" y="84.4946" width="16.1917" height="25.444" rx="8.09583" transform="rotate(-45 53.1472 84.4946)" fill="#EEF2FF"/>
<rect x="74.4099" y="63.2329" width="16.1917" height="25.444" rx="8.09583" transform="rotate(-45 74.4099 63.2329)" fill="#EEF2FF"/>
</svg>
